<svg class="logo --is-clickable" width="81.148mm" height="8.9535mm" version="1.1" viewBox="0 0 81.148 8.9535" role="img">
    <title>Logo</title>
    <g transform="translate(-17.097 -22.174)">
        <g transform="scale(.26458)" aria-label="Bianca" style="white-space: pre;">
            <path d="m85.788 100.08q3.312 0.72 5.088 2.88 1.824 2.112 1.824 5.472 0 4.32-3.216 6.672-3.168 2.304-9.408 2.304h-15.456v-33.6h14.496q5.616 0 8.688 2.256 3.12 2.256 3.12 6.384 0 2.784-1.392 4.752-1.344 1.92-3.744 2.88zm-17.616-13.344v12.192h10.704q4.08 0 6.288-1.536 2.208-1.584 2.208-4.56t-2.208-4.512q-2.208-1.584-6.288-1.584zm11.856 27.744q4.512 0 6.816-1.536t2.304-4.8q0-6.288-9.12-6.288h-11.856v12.624z"/>
            <path d="m101.9 89.408h2.96v28h-2.96z"/>
            <path d="m133.54 109.93h-15.6l-3.36 7.48h-3.08l12.8-28h2.92l12.8 28h-3.12zm-1.08-2.4-6.72-15.04-6.72 15.04z"/>
            <path d="m170.06 89.408v28h-2.44l-18-22.72v22.72h-2.96v-28h2.44l18.04 22.72v-22.72z"/>
            <path d="m193.34 117.65q-4.16 0-7.52-1.84-3.32-1.84-5.24-5.08-1.88-3.28-1.88-7.32 0-4.04 1.88-7.28 1.92-3.28 5.28-5.12t7.52-1.84q3.12 0 5.76 1.04t4.48 3.04l-1.88 1.88q-3.28-3.32-8.28-3.32-3.32 0-6.04 1.52t-4.28 4.16q-1.52 2.64-1.52 5.92t1.52 5.92q1.56 2.64 4.28 4.16t6.04 1.52q5.04 0 8.28-3.36l1.88 1.88q-1.84 2-4.52 3.08-2.64 1.04-5.76 1.04z"/>
            <path d="m228.78 109.93h-15.6l-3.36 7.48h-3.08l12.8-28h2.92l12.8 28h-3.12zm-1.08-2.4-6.72-15.04-6.72 15.04z"/>
        </g>
        <g transform="matrix(.26458 0 0 .26458 6.4639 2.0412)" fill="#d4a259" aria-label="Fiore" style="white-space: pre;">
            <path d="m218.61 79.165v13.2h17.376v3.072h-17.376v14.256h-3.552v-33.6h23.04v3.072z"/>
            <path d="m246.53 81.693h2.96v28h-2.96z"/>
            <path d="m272.85 109.93q-4.16 0-7.56-1.84-3.36-1.88-5.28-5.12-1.88-3.24-1.88-7.28t1.88-7.28q1.92-3.24 5.28-5.08 3.4-1.88 7.56-1.88t7.48 1.84q3.36 1.84 5.28 5.12 1.92 3.24 1.92 7.28t-1.92 7.32q-1.92 3.24-5.28 5.08-3.32 1.84-7.48 1.84zm0-2.64q3.32 0 6-1.48 2.68-1.52 4.2-4.16 1.52-2.68 1.52-5.96t-1.52-5.92q-1.52-2.68-4.2-4.16-2.68-1.52-6-1.52t-6.04 1.52q-2.68 1.48-4.24 4.16-1.52 2.64-1.52 5.92t1.52 5.96q1.56 2.64 4.24 4.16 2.72 1.48 6.04 1.48z"/>
            <path d="m315.29 109.69-6.4-9q-1.08 0.12-2.24 0.12h-7.52v8.88h-2.96v-28h10.48q5.36 0 8.4 2.56t3.04 7.04q0 3.28-1.68 5.56-1.64 2.24-4.72 3.24l6.84 9.6zm-8.72-11.4q4.16 0 6.36-1.84t2.2-5.16q0-3.4-2.2-5.2-2.2-1.84-6.36-1.84h-7.44v14.04z"/>
            <path d="m346.89 107.13v2.56h-19.8v-28h19.2v2.56h-16.24v9.96h14.48v2.52h-14.48v10.4z"/>
        </g>
    </g>
</svg>
