<svg class="clock" width="384pt" height="384pt" viewBox="0 0 384 384" xmlns="http://www.w3.org/2000/svg">
    <path class="clock__frame"
          d="m343.59 101.04c-7.9531 3.8477-11.281 13.418-7.4336 21.367 10.512 21.715 15.84 45.121 15.84 69.594 0 88.223-71.777 160-160 160s-160-71.777-160-160 71.777-160 160-160c36.559 0 70.902 11.938 99.328 34.52 6.8945 5.5039 16.977 4.3516 22.48-2.5664 5.5039-6.9141 4.3516-16.984-2.5703-22.48-33.652-26.746-76-41.473-119.24-41.473-105.86 0-192 86.137-192 192s86.137 192 192 192 192-86.137 192-192c0-29.336-6.4062-57.449-19.039-83.527-3.8398-7.9688-13.441-11.289-21.367-7.4336z"/>
    <path class="clock__handles"
          d="m192 64c-8.832 0-16 7.168-16 16v112c0 8.832 7.168 16 16 16h80c8.832 0 16-7.168 16-16s-7.168-16-16-16h-64v-96c0-8.832-7.168-16-16-16z"/>
</svg>