<svg xmlns="http://www.w3.org/2000/svg" style="display:none">
    <symbol xmlns="http://www.w3.org/2000/svg" viewBox="0 0 140 100" id="btn-layer" preserveAspectRatio="none">
        <path
                d="M133,77.5H7c-3.9,0-7-3.1-7-7v-41c0-3.9,3.1-7,7-7h126c3.9,0,7,3.1,7,7v41C140,74.4,136.9,77.5,133,77.5z"/>
    </symbol>
    <symbol xmlns="http://www.w3.org/2000/svg" viewBox="0 0 28 26" id="plane" preserveAspectRatio="none">
        <path
                d="M5.25,15.24,18.42,3.88,7.82,17l0,4.28a.77.77,0,0,0,1.36.49l3-3.68,5.65,2.25a.76.76,0,0,0,1-.58L22,.89A.77.77,0,0,0,20.85.1L.38,11.88a.76.76,0,0,0,.09,1.36Z"/>
    </symbol>
</svg>