<svg xmlns="http://www.w3.org/2000/svg" width="29" height="28" version="1.1" viewBox="0 0 29 28"><title>“</title><g id="Bianca" fill="none" fill-rule="evenodd" stroke="none" stroke-width="1"><g id="proyectos-detalle-2" fill="#D4A259" fill-rule="nonzero" transform="translate(-371.000000, -1493.000000)"><path id="“" d="M377.715332,1520.37061 C379.185059,1520.37061 380.424072,1519.875 381.432373,1518.88379 C382.440674,1517.89258 382.944824,1516.66211 382.944824,1515.19238 C382.944824,1513.72266 382.449218,1512.48364 381.458008,1511.47534 C380.466797,1510.46704 379.219238,1509.96289 377.715332,1509.96289 C376.040527,1509.96289 374.741699,1510.54395 373.818848,1511.70605 C373.784668,1511.43262 373.767578,1511.00537 373.767578,1510.42432 C373.801758,1506.97217 374.587891,1503.91309 376.125977,1501.24707 C377.664062,1498.58105 379.509766,1496.479 381.663086,1494.94092 L380.688965,1493.60791 C378.057129,1495.35107 375.835449,1497.79492 374.023926,1500.93945 C372.212403,1504.08398 371.306641,1507.72412 371.306641,1511.85986 C371.306641,1514.6626 371.89624,1516.78174 373.075439,1518.21729 C374.254639,1519.65283 375.80127,1520.37061 377.715332,1520.37061 Z M394.736816,1520.37061 C396.206543,1520.37061 397.445556,1519.875 398.453857,1518.88379 C399.462158,1517.89258 399.966309,1516.66211 399.966309,1515.19238 C399.966309,1513.72266 399.470703,1512.48364 398.479492,1511.47534 C397.488282,1510.46704 396.240722,1509.96289 394.736816,1509.96289 C393.062011,1509.96289 391.763184,1510.54395 390.840332,1511.70605 C390.806152,1511.43262 390.789062,1511.00537 390.789062,1510.42432 C390.823242,1506.97217 391.609375,1503.91309 393.147461,1501.24707 C394.685547,1498.58105 396.53125,1496.479 398.68457,1494.94092 L397.710449,1493.60791 C395.078614,1495.35107 392.856933,1497.79492 391.04541,1500.93945 C389.233887,1504.08398 388.328125,1507.72412 388.328125,1511.85986 C388.328125,1514.6626 388.917725,1516.78174 390.096924,1518.21729 C391.276123,1519.65283 392.822754,1520.37061 394.736816,1520.37061 Z"/></g></g></svg>