<svg version="1.1" xmlns="http://www.w3.org/2000/svg" width="125" height="125">
<path d="M0 0 C6.55875 -0.0825 13.1175 -0.165 19.875 -0.25 C22.94917236 -0.30462402 22.94917236 -0.30462402 26.08544922 -0.36035156 C46.39144814 -0.57255163 46.39144814 -0.57255163 54.5625 7.0625 C57.88741698 11.06945123 58.17423348 13.81127121 58.25 18.875 C58.27578125 19.90367188 58.3015625 20.93234375 58.328125 21.9921875 C57.70455889 27.70821022 54.21514939 31.31174428 50 35 C49.01 35 48.02 35 47 35 C47 35.66 47 36.32 47 37 C47.86625 37.020625 48.7325 37.04125 49.625 37.0625 C54.2664092 38.35178033 56.36623065 41.07079361 59 45 C60.69901108 50.09703325 60.9267424 55.87740938 59.38671875 61.06640625 C56.92329056 65.91729789 52.76934351 69.48284648 48 72 C42.0141023 73.79667402 36.69507748 74.27274528 30.46875 74.1953125 C29.30134277 74.19229126 29.30134277 74.19229126 28.11035156 74.18920898 C25.24017327 74.17885036 22.37007987 74.15092893 19.5 74.125 C13.065 74.08375 6.63 74.0425 0 74 C0 49.58 0 25.16 0 0 Z M14 12 C13.9016279 13.33043625 13.86921408 14.66593344 13.8671875 16 C13.86589844 16.804375 13.86460938 17.60875 13.86328125 18.4375 C13.86714844 19.283125 13.87101563 20.12875 13.875 21 C13.87113281 21.845625 13.86726562 22.69125 13.86328125 23.5625 C13.86457031 24.366875 13.86585937 25.17125 13.8671875 26 C13.86831543 26.7425 13.86944336 27.485 13.87060547 28.25 C13.81057784 30.02825811 13.81057784 30.02825811 15 31 C18.40848088 31.27993994 21.83139446 31.23184008 25.25 31.25 C26.20519531 31.270625 27.16039062 31.29125 28.14453125 31.3125 C35.06997042 31.36676254 35.06997042 31.36676254 41 28 C43.1155391 25.94707246 43.1155391 25.94707246 44 23 C43.77588957 19.84605566 43.22741456 16.91941126 42 14 C36.47823005 10.31882004 30.67660714 10.84609472 24.25 10.875 C23.37472656 10.87113281 22.49945313 10.86726563 21.59765625 10.86328125 C20.35048828 10.86521484 20.35048828 10.86521484 19.078125 10.8671875 C18.31918945 10.86831543 17.56025391 10.86944336 16.77832031 10.87060547 C14.97505033 10.80697389 14.97505033 10.80697389 14 12 Z M14 43 C13.90139869 44.40348735 13.86921063 45.81180477 13.8671875 47.21875 C13.86589844 48.06824219 13.86460938 48.91773438 13.86328125 49.79296875 C13.86714844 50.68628906 13.87101563 51.57960938 13.875 52.5 C13.87113281 53.39332031 13.86726562 54.28664063 13.86328125 55.20703125 C13.86457031 56.05652344 13.86585937 56.90601563 13.8671875 57.78125 C13.86831543 58.56564453 13.86944336 59.35003906 13.87060547 60.15820312 C13.79892558 62.01752988 13.79892558 62.01752988 15 63 C18.36656497 63.28104388 21.74811334 63.23189337 25.125 63.25 C26.0634375 63.270625 27.001875 63.29125 27.96875 63.3125 C33.77725381 63.34504064 37.88451399 62.81555264 43 60 C45.11730651 57.684196 45.94564924 56.18626433 46.08984375 53.0390625 C45.8294851 49.44744828 45.35181044 47.45735357 43.125 44.5625 C39.67742428 42.02751785 36.86232353 41.87216092 32.7109375 41.8671875 C31.68742187 41.86589844 30.66390625 41.86460938 29.609375 41.86328125 C28.00835938 41.86908203 28.00835938 41.86908203 26.375 41.875 C25.29992187 41.87113281 24.22484375 41.86726563 23.1171875 41.86328125 C22.09625 41.86457031 21.0753125 41.86585937 20.0234375 41.8671875 C19.08419434 41.86831543 18.14495117 41.86944336 17.17724609 41.87060547 C15.02175654 41.75693955 15.02175654 41.75693955 14 43 Z " fill="#0F0F0F" transform="translate(1,26)"/>
<path d="M0 0 C0.88602402 0.00222061 1.77204803 0.00444122 2.68492126 0.00672913 C3.68588333 0.00680466 4.6868454 0.00688019 5.71813965 0.00695801 C6.80666733 0.01211929 7.89519501 0.01728058 9.01670837 0.02259827 C10.67928932 0.02472069 10.67928932 0.02472069 12.37545776 0.02688599 C15.93168281 0.03250418 19.48784596 0.04505977 23.04405212 0.05775452 C25.44834809 0.06276717 27.85264504 0.06733048 30.25694275 0.07142639 C36.1651699 0.08247953 42.0733505 0.09975635 47.98155212 0.12025452 C47.98155212 4.08025452 47.98155212 8.04025452 47.98155212 12.12025452 C40.43232399 13.1456577 33.03064369 13.23751417 25.41905212 13.18275452 C24.21957947 13.1782428 23.02010681 13.17373108 21.7842865 13.16908264 C18.85001985 13.15739234 15.9157792 13.13946037 12.98155212 13.12025452 C12.98155212 19.06025452 12.98155212 25.00025452 12.98155212 31.12025452 C16.42914978 31.10285217 16.42914978 31.10285217 19.94639587 31.08509827 C22.16376101 31.07730743 24.38112463 31.07123082 26.59849548 31.06532288 C28.14374978 31.06028312 29.68899929 31.05345132 31.23423767 31.04481506 C33.45080241 31.03273376 35.66730431 31.02702279 37.88389587 31.02259827 C38.57869553 31.01743698 39.27349518 31.0122757 39.98934937 31.00695801 C41.65384542 31.00676175 43.31820711 31.05836323 44.98155212 31.12025452 C45.98155212 32.12025452 45.98155212 32.12025452 46.07920837 34.62416077 C46.06760681 35.6334967 46.05600525 36.64283264 46.04405212 37.68275452 C46.03502869 38.69466858 46.02600525 39.70658264 46.01670837 40.74916077 C46.00510681 41.5316217 45.99350525 42.31408264 45.98155212 43.12025452 C42.5037263 44.27952979 39.79351956 44.23338518 36.12608337 44.21791077 C34.91541199 44.21541321 33.7047406 44.21291565 32.4573822 44.21034241 C30.91848328 44.2012384 29.37958435 44.1921344 27.79405212 44.18275452 C22.90592712 44.16212952 18.01780212 44.14150452 12.98155212 44.12025452 C12.98155212 54.02025452 12.98155212 63.92025452 12.98155212 74.12025452 C7.70155212 74.12025452 2.42155212 74.12025452 -3.01844788 74.12025452 C-3.04100014 64.61950816 -3.05936368 55.11877945 -3.07026005 45.61801243 C-3.07548857 41.20688448 -3.08258565 36.79577572 -3.09388733 32.38465881 C-3.10471731 28.13124336 -3.11072494 23.87784643 -3.11332512 19.62441826 C-3.11517917 17.99803819 -3.1187994 16.37165918 -3.12417793 14.74528694 C-3.13138986 12.47515259 -3.13243876 10.20509567 -3.13197327 7.93495178 C-3.13419388 6.64033524 -3.13641449 5.34571869 -3.13870239 4.01187134 C-2.97924112 0.17749638 -2.97924112 0.17749638 0 0 Z " fill="#D7A966" transform="translate(77.01844787597656,25.879745483398438)"/>
</svg>
