<svg xmlns="http://www.w3.org/2000/svg" viewBox="0 0 512 512" width="512" height="512">
	<style>
		.bg { fill: #faf8f2; }
		.fg { fill: #1b1813; }
		.dot { fill: #9a7536; }

		@media (prefers-color-scheme: dark) {
			.bg { fill: #15130e; }
			.fg { fill: #ece6d8; }
			.dot { fill: #cba968; }
		}
	</style>
	<rect class="bg" x="0" y="0" width="512" height="512" rx="112"/>
	<path class="fg" d="M247.71 295.52Q247.71 277.46 241.5 263.7Q235.28 249.93 224.03 242.24Q212.78 234.54 198.28 234.54Q177.56 234.54 161.87 251.41V149.59H159.5L125.17 161.13V163.2L142.63 169.72V363H145L153.88 355.01H155.06Q169.57 365.96 188.22 365.96Q205.09 365.96 218.7 356.79Q232.32 347.61 240.02 331.63Q247.71 315.64 247.71 295.52ZM161.87 333.11V255.85Q166.31 249.93 173.27 246.68Q180.22 243.42 188.22 243.42Q205.68 243.42 215.6 259.11Q225.51 274.8 225.51 301.73Q225.51 329.56 215.3 346.28Q205.09 363 187.92 363Q176.08 363 168.98 354.86Q161.87 346.72 161.87 333.11ZM361.38 163.5Q361.38 167.94 358.12 171.05Q354.86 174.16 350.42 174.16Q345.69 174.16 342.88 171.2Q340.06 168.24 338.88 162.02Q337.1 154.62 334.88 152.25Q332.66 149.88 327.63 149.88Q314.31 149.88 308.1 165.28Q305.73 171.49 304.84 179.63Q303.95 187.77 303.95 204.05V237.5H331.48L330 242.24H303.95V357.68L329.7 360.64V363H266.66V360.64L284.71 358.27V242.24H264.88L266.36 237.5H284.71V220.33Q284.71 198.72 285.45 190.14Q286.19 181.56 288.26 175.93Q293.3 162.91 305.73 154.47Q318.16 146.04 332.66 146.04Q344.21 146.04 352.79 151.22Q361.38 156.4 361.38 163.5Z"/>
	<path class="dot" d="M371.74 333.7Q378.54 333.7 382.69 337.99Q386.83 342.28 386.83 348.8Q386.83 355.31 382.69 359.75Q378.54 364.19 371.74 364.19Q364.93 364.19 360.64 359.75Q356.34 355.31 356.34 348.8Q356.34 342.28 360.64 337.99Q364.93 333.7 371.74 333.7Z"/>
</svg>
