<svg enable-background="new 0 0 512 512" version="1.1" viewBox="0 0 512 512" xml:space="preserve"
     xmlns="http://www.w3.org/2000/svg">
		<path d="m458.67 0h-135.32c-25.643 0-49.771 9.984-67.904 28.117l-237.25 237.27c-11.562 11.562-18.197 27.562-18.197 43.989 0 16.341 6.635 32.341 18.197 43.904l140.54 140.54c11.542 11.541 27.542 18.176 43.968 18.176 16.341 0 32.341-6.635 43.904-18.197l237.27-237.27c18.134-18.113 28.118-42.241 28.118-67.883v-135.32c0-29.418-23.915-53.333-53.333-53.333zm-64 170.67c-29.419 0-53.333-23.915-53.333-53.333 0-29.419 23.915-53.333 53.333-53.333s53.333 23.914 53.333 53.332c0 29.419-23.915 53.334-53.333 53.334z"/>
</svg>
